<?xml version="1.0" encoding="UTF-8" standalone="no"?>
<!-- Created with Inkscape (http://www.inkscape.org/) -->
<svg id="svg2" xmlns:rdf="http://www.w3.org/1999/02/22-rdf-syntax-ns#" xmlns="http://www.w3.org/2000/svg" height="100" viewBox="0 0 165 100" width="165" version="1.1" xmlns:cc="http://creativecommons.org/ns#" xmlns:dc="http://purl.org/dc/elements/1.1/">
 <metadata id="metadata7">
  <rdf:RDF>
   <cc:Work rdf:about="">
    <dc:format>image/svg+xml</dc:format>
    <dc:type rdf:resource="http://purl.org/dc/dcmitype/StillImage"/>
    <dc:title/>
   </cc:Work>
  </rdf:RDF>
 </metadata>
 <text id="text4233" style="word-spacing:0px;letter-spacing:0px" xml:space="preserve" font-size="60px" y="86.918526" x="77.781746" font-family="sans-serif" line-height="125%" fill="#000000"><tspan id="tspan4235" x="77.781746" y="86.918526"/></text>
 <g id="g4309" transform="matrix(.65098 0 0 .54213 246.74 25.735)">
  <path id="path4297" fill="#f5a19e" d="m-352.11 124c-4.2366-1.0774-7.8184-4.5048-8.7123-8.3368-0.80836-3.4653-0.57538-3.6538 4.3216-3.4971 4.0466 0.12953 4.2905 0.19716 4.8122 1.3344 0.8945 1.9496 2.2906 2.875 4.3376 2.875 3.8749 0 4.7384-4.6691 1.0221-5.5267-4.0502-0.93465-8.4748-2.7887-9.9168-4.1554-6.2933-5.9646-3.6171-16.436 4.7549-18.604 7.6335-1.9768 15.988 2.5612 16.106 8.7486l0.0391 2.0475-4.0013 0.13628-4.0013 0.13628-0.78828-1.4405c-1.5448-2.8229-6.0797-3.0551-6.0797-0.31139 0 1.516 0.56751 1.9247 4.3511 3.1341 7.029 2.2467 9.2163 3.8211 11.015 7.9285 1.4034 3.2043 1.373 6.0772-0.0977 9.2631-2.0781 4.5016-6.2287 6.8225-12.055 6.7409-1.8895-0.0265-4.1876-0.23942-5.107-0.47322zm32.797-0.0116c-4.7534-1.2046-9.6269-5.4705-11.612-10.164-2.0542-4.8568-2.0556-11.256-0.004-15.821 1.4255-3.1704 4.9361-6.8624 8.1486-8.5695 2.7411-1.4566 3.271-1.5688 7.4099-1.5688 4.1296 0 4.6727 0.11429 7.3803 1.5531 3.5198 1.8705 6.637 5.2977 8.2982 9.1236 1.0418 2.3993 1.1897 3.3356 1.1897 7.5316 0 4.2618-0.13551 5.0895-1.2254 7.4851-3.6854 8.1008-11.776 12.409-19.586 10.43zm8.4326-10.578c1.7068-1.2457 3.7224-5.1481 3.7224-7.207 0-1.748-1.1042-4.5918-2.3516-6.0566-1.2562-1.4751-4.1487-2.9141-5.8843-2.9276-2.0514-0.01591-5.5913 2.1209-6.8566 4.1389-1.6123 2.5715-1.5786 6.8953 0.0747 9.5922 2.4223 3.9512 7.6827 5.0969 11.296 2.4601zm141.15 10.156c-5.6354-1.9429-9.8115-6.3621-11.423-12.088-2.4902-8.8499 1.2993-17.795 9.3513-22.074 2.6776-1.4229 3.2345-1.5396 7.3456-1.5396 4.0763 0 4.6971 0.12721 7.4228 1.5211 3.6294 1.856 6.7122 5.0803 8.191 8.5671 1.7159 4.0457 1.5512 4.2622-3.3675 4.4257l-4.1772 0.13886-1.8104-1.913c-0.99571-1.0522-2.5531-2.2467-3.4608-2.6545-7.181-3.2261-14.256 5.8814-9.94 12.795 3.0057 4.8146 8.7773 5.3906 12.901 1.2875l1.896-1.8865h4.2784 4.2784l-0.0186 1.3177c-0.0568 4.0201-5.9409 10.277-11.365 12.086-3.5837 1.1948-6.67 1.1999-10.102 0.0167zm-125.67-0.56003c-0.12637-0.35548-0.17722-8.2999-0.11299-17.654l0.11677-17.008h8.6675 8.6675l2.9283 1.5573c3.4763 1.8487 6.206 4.8619 7.8461 8.6609 0.99397 2.3024 1.1747 3.3805 1.1787 7.0318 0.004 3.8474-0.14586 4.6562-1.3918 7.4996-1.7718 4.0433-4.3275 6.8028-8.0756 8.7196-2.9352 1.5011-3.0012 1.5109-11.274 1.6746-6.679 0.13215-8.3664 0.0371-8.5508-0.48167zm15.887-9.6864c4.4291-2.0456 6.0645-8.5208 3.1095-12.312-1.7352-2.2261-3.2476-2.8412-6.9858-2.8412h-3.3513v7.9062 7.9062h2.8996c1.5948 0 3.5424-0.29688 4.328-0.65973zm16.501 9.6416c-0.1176-0.33081-0.16127-8.255-0.097-17.609l0.11678-17.008 3.7052-0.13992c2.3499-0.08874 3.933 0.06418 4.328 0.41805 0.84577 0.75769 0.93155 33.457 0.0901 34.366-0.74719 0.80655-7.8552 0.78344-8.1431-0.0264zm13.219 0.0435c-0.85105-0.91867-0.78557-33.612 0.0688-34.378 0.41222-0.36929 2.4315-0.50817 6.0782-0.41805l5.4609 0.13496 2.4179 7.3073c1.3298 4.019 2.5618 7.3073 2.7377 7.3073 0.17585 0 1.3964-3.2883 2.7123-7.3073l2.3926-7.3073 5.5441-0.13546c4.8267-0.11793 5.6165-0.02856 6.1036 0.69054 0.80994 1.1957 0.80704 32.678-0.003 33.874-0.47511 0.70138-1.1831 0.80882-4.55 0.69054l-3.9873-0.14007-0.12424-6.1094c-0.0683-3.3602-0.2764-6.1094-0.46237-6.1094s-1.1088 2.318-2.0506 5.151c-2.4403 7.3402-2.4155 7.3073-5.5003 7.3073-1.4126 0-2.8784-0.26954-3.2574-0.59896-0.37902-0.32943-1.5407-3.1416-2.5816-6.2494-1.0408-3.1077-2.0174-5.5165-2.1701-5.3528-0.15271 0.16369-0.37753 2.922-0.4996 6.1296l-0.22195 5.832-3.7796 0.1368c-2.5597 0.0926-3.9566-0.0543-4.328-0.4552zm36.054 0.0452c-0.27757-0.4848 11.441-33.074 12.351-34.347 0.29158-0.40795 1.8342-0.59896 4.8372-0.59896h4.4091l1.021 2.5156c4.0223 9.9102 11.843 31.17 11.72 31.859-0.13231 0.7416-0.71413 0.84377-4.8054 0.84377h-4.6549l-1.2228-2.7699-1.2228-2.7699-5.3776 0.13452-5.3776 0.13452-0.86908 2.3904c-0.47799 1.3147-1.1034 2.5512-1.3898 2.7479-0.825 0.56646-9.0836 0.44322-9.4179-0.14054zm18.875-14.461c-0.005-0.32942-0.42738-1.5693-0.93783-2.7552l-0.92808-2.1562-0.80484 1.9167c-1.2876 3.0664-1.1549 3.5938 0.90491 3.5938 1.1297 0 1.772-0.21786 1.7658-0.59896zm49.931 13.985c-0.16557-0.28919-0.73324-0.40872-1.2615-0.2656-0.86948 0.23556-0.96163 0.0691-0.9731-1.758-0.017-2.7178 1.263-3.5592 3.1495-2.0701 0.70626 0.55746 0.75059 0.78958 0.27012 1.4145-0.31614 0.41118-0.45029 1.1711-0.29811 1.6886 0.30445 1.0354-0.40659 1.8296-0.88694 0.99064zm-179.69-49.649c-0.16276-0.17569-0.29593-13.684-0.29593-30.019v-29.699l18.024-19.215 18.024-19.215 12.272-0.23958 12.272-0.23958 0.12767-4.149c0.0842-2.7349 0.33014-4.3304 0.72174-4.6812 0.40638-0.36407 3.7319-0.49142 10.526-0.40309l9.9318 0.12912 0.22195 4.5521 0.22195 4.5521 12.443 0.12708 12.443 0.12708 17.631 19.054 17.631 19.054v29.367c0 19.327-0.1571 29.683-0.45951 30.293-0.45136 0.91036-1.7124 0.92683-70.95 0.92683-38.77 0-70.623-0.14375-70.786-0.31945zm130.88-30.587v-18.208l-26.523-0.12356-26.523-0.12356v18.455 18.455l26.523-0.12356 26.523-0.12356v-18.208z"/>
  <path id="path4295" fill="#f0dd09" d="m-350.44 123.59c-4.5132-0.76963-7.4627-2.8317-9.1668-6.4089-0.48035-1.0083-0.81163-2.4099-0.73617-3.1146 0.13489-1.2597 0.19864-1.2836 3.7789-1.4201 3.5908-0.13688 3.6506-0.12015 4.2826 1.199 1.018 2.1249 2.3208 3.1077 4.4657 3.3687 1.7906 0.21787 2.1372 0.0885 3.3926-1.2666 1.1283-1.218 1.343-1.7613 1.112-2.815-0.30951-1.412-1.749-2.9827-2.7336-2.9827-0.33625 0-2.4678-0.6419-4.7367-1.4265-4.5164-1.5617-6.3757-3.1085-7.6261-6.3446-2.0865-5.3999 0.89663-11.684 6.3502-13.377 2.3955-0.7437 7.7164-0.7083 9.6226 0.06402 2.6399 1.0696 4.6259 2.9757 5.8005 5.5671 1.637 3.6119 1.3664 4.017-2.684 4.017-3.0831 0-3.3886-0.09163-4.0749-1.2224-1.6834-2.7733-5.7869-3.5557-7.121-1.3578-0.68197 1.1235-0.69287 1.3837-0.10534 2.5156 0.53419 1.0291 1.6545 1.6192 6.061 3.1925 5.9066 2.1089 7.6098 3.3709 9.0355 6.695 2.3769 5.5418-0.0605 11.921-5.4842 14.352-1.9024 0.85282-6.6572 1.2386-9.4327 0.76529zm29.906-0.77333c-4.5545-1.5138-8.8831-6.0531-10.48-10.99-1.2233-3.7826-1.0379-9.3933 0.42302-12.802 5.0738-11.84 19.367-14.354 27.435-4.8247 2.8219 3.3329 4.0934 6.9111 4.1355 11.637 0.0549 6.1716-2.3704 11.29-6.9604 14.689-3.9503 2.9253-9.8501 3.8538-14.554 2.2903zm9.2686-8.4124c3.6093-1.8861 5.4894-7.1565 4.1341-11.589-0.69471-2.2723-3.9517-5.4548-6.0087-5.8713-6.0357-1.2223-10.888 2.8582-10.888 9.1565 0 7.2058 6.6204 11.514 12.762 8.3042zm141.27 8.3914c-2.6824-1.047-6.4633-3.8025-7.7384-5.6398-3.8928-5.6087-4.5974-13.038-1.8014-18.994 1.4835-3.1602 5.828-7.3412 8.9696-8.632 3.4418-1.4142 8.7204-1.456 11.987-0.09485 4.8997 2.0416 9.4503 7.1454 9.6029 10.77l0.0656 1.5588-3.5156 0.14141-3.5156 0.14141-2.0331-2.1506c-2.3907-2.5289-3.7429-3.1635-6.7406-3.1635-4.9075 0-8.8314 4.2372-8.8314 9.5368 0 2.4459 0.64665 4.2547 2.1368 5.9768 3.6202 4.1838 9.8961 4.1285 13.594-0.1198 1.2561-1.4431 1.4378-1.4979 4.9677-1.4979 2.0151 0 3.7819 0.20613 3.9262 0.45807 0.98984 1.7289-4.4584 8.6347-8.5308 10.813-2.1239 1.1361-3.2281 1.3925-6.5496 1.5208-2.8766 0.11111-4.5543-0.064-5.9926-0.62537zm-124.85-0.47179c-0.1807-0.19505-0.32854-7.7347-0.32854-16.755 0-14.513 0.0808-16.434 0.70216-16.691 1.3402-0.55516 13.254-0.2827 15.788 0.36106 11.873 3.0167 16.157 19.099 7.5595 28.38-0.97563 1.0532-2.8407 2.5527-4.1446 3.3323-2.3597 1.4109-2.4097 1.4182-10.809 1.5725-4.6412 0.0852-8.5863-0.005-8.767-0.19966zm14.443-7.8904c0.92222-0.27644 2.4002-1.1883 3.2844-2.0263 3.806-3.6073 3.8048-9.5336-0.003-13.142-1.8606-1.7634-3.3848-2.1674-7.3999-1.9612l-2.8854 0.14816-0.1222 8.1434c-0.10858 7.236-0.0373 8.2104 0.63972 8.7448 0.9259 0.73082 4.2022 0.77801 6.486 0.0934zm17.929 7.8552c-0.16276-0.17569-0.29593-7.5884-0.29593-16.473 0-13.315 0.10995-16.252 0.62589-16.714 0.38266-0.34281 1.8058-0.50527 3.6622-0.41804l3.0363 0.14267 0.11665 16.891 0.11666 16.891h-3.4829c-1.9156 0-3.616-0.14375-3.7788-0.31945zm13.126-16.552 0.11667-16.91 4.928-0.13482c3.6734-0.1005 5.0522 0.02683 5.4161 0.50008 0.26847 0.34919 1.5598 3.8599 2.8695 7.8015 1.5529 4.6733 2.6011 7.1666 3.013 7.1666 0.41326 0 1.4403-2.4693 2.9715-7.1442 1.287-3.9293 2.5622-7.4332 2.8338-7.7865 0.51365-0.66808 8.4478-0.94994 9.8926-0.35144 0.62173 0.25753 0.70215 2.208 0.70215 17.029v16.738l-3.8841-0.13845-3.8841-0.13845-0.22195-7.1435c-0.17683-5.6913-0.33147-7.0006-0.76071-6.4406-0.29632 0.3866-1.5261 3.6012-2.7328 7.1435l-2.194 6.4406-2.8829 0.1406-2.8829 0.1406-0.70567-2.0573c-0.38813-1.1315-1.4567-4.3036-2.3746-7.0492-0.91787-2.7456-1.9131-5.0795-2.2117-5.1866-0.40796-0.14634-0.57339 1.5701-0.66585 6.9086l-0.12303 7.1033-3.6679 0.13927-3.6679 0.13927 0.11668-16.91zm36.294 16.508c0-0.95129 12.058-32.932 12.541-33.263 0.69757-0.47815 7.0384-0.50073 7.7168-0.0275 0.27755 0.19362 2.147 4.6645 4.1542 9.9354 2.0073 5.2708 4.8264 12.657 6.2648 16.414 1.4384 3.7571 2.6152 6.9375 2.6152 7.0677 0 0.13018-1.992 0.23669-4.4266 0.23669h-4.4266l-0.96242-2.415c-0.52933-1.3282-1.3208-2.622-1.7588-2.875-0.88319-0.51021-9.2364-0.63552-10.394-0.15592-0.40381 0.16727-1.2082 1.461-1.7875 2.875l-1.0533 2.5709h-4.2415c-2.3328 0.00002-4.2415-0.16356-4.2415-0.36349zm18.79-13.59c-0.0975-1.6171-2.0078-5.9504-2.5876-5.8699-0.63659 0.0883-2.578 5.811-2.2676 6.6842 0.19751 0.55559 0.82242 0.69685 2.5956 0.58675 2.2124-0.13738 2.3314-0.21116 2.2597-1.401zm-129.91-36.219c-0.16276-0.17569-0.29593-13.492-0.29593-29.591v-29.271l17.869-19.284 17.869-19.284h12.29c8.2744 0 12.386-0.16804 12.584-0.51432 0.16195-0.28287 0.28437-2.1756 0.27203-4.2062-0.0123-2.0305 0.1309-3.9596 0.31829-4.2869 0.25837-0.45127 2.6932-0.56382 10.075-0.46572l9.7341 0.12938 0.12966 4.2967c0.0813 2.695 0.32955 4.4338 0.66585 4.6645 0.2949 0.20232 6.0241 0.37115 12.732 0.37519l12.195 0.0073 17.324 18.682 17.324 18.682 0.13029 28.636c0.0717 15.75 0.0126 29.336-0.13109 30.193l-0.26138 1.5573h-70.264c-38.645 0-70.397-0.14375-70.56-0.31945zm130.54-11.407c0.4404-0.17784 0.53526-4.1969 0.4439-18.807l-0.1162-18.581-26.967-0.1235-26.967-0.1235v18.896c0 17.276 0.0636 18.909 0.74195 19.051 1.163 0.24285 52.236-0.0585 52.864-0.31191z"/>
  <path id="path4293" fill="#ef5e59" d="m-350.44 123.59c-4.5132-0.76963-7.4627-2.8317-9.1668-6.4089-0.48035-1.0083-0.81163-2.4099-0.73617-3.1146 0.13489-1.2597 0.19864-1.2836 3.7789-1.4201 3.5908-0.13688 3.6506-0.12015 4.2826 1.199 1.018 2.1249 2.3208 3.1077 4.4657 3.3687 1.7906 0.21787 2.1372 0.0885 3.3926-1.2666 1.1283-1.218 1.343-1.7613 1.112-2.815-0.30951-1.412-1.749-2.9827-2.7336-2.9827-0.33625 0-2.4678-0.6419-4.7367-1.4265-4.5164-1.5617-6.3757-3.1085-7.6261-6.3446-2.0865-5.3999 0.89663-11.684 6.3502-13.377 2.3955-0.7437 7.7164-0.7083 9.6226 0.06402 2.6399 1.0696 4.6259 2.9757 5.8005 5.5671 1.637 3.6119 1.3664 4.017-2.684 4.017-3.0831 0-3.3886-0.09163-4.0749-1.2224-1.6834-2.7733-5.7869-3.5557-7.121-1.3578-0.68197 1.1235-0.69287 1.3837-0.10534 2.5156 0.53419 1.0291 1.6545 1.6192 6.061 3.1925 5.9066 2.1089 7.6098 3.3709 9.0355 6.695 2.3769 5.5418-0.0605 11.921-5.4842 14.352-1.9024 0.85282-6.6572 1.2386-9.4327 0.76529zm29.906-0.77333c-4.5545-1.5138-8.8831-6.0531-10.48-10.99-1.2233-3.7826-1.0379-9.3933 0.42302-12.802 5.0738-11.84 19.367-14.354 27.435-4.8247 2.8219 3.3329 4.0934 6.9111 4.1355 11.637 0.0549 6.1716-2.3704 11.29-6.9604 14.689-3.9503 2.9253-9.8501 3.8538-14.554 2.2903zm9.2686-8.4124c3.6093-1.8861 5.4894-7.1565 4.1341-11.589-0.69471-2.2723-3.9517-5.4548-6.0087-5.8713-6.0357-1.2223-10.888 2.8582-10.888 9.1565 0 7.2058 6.6204 11.514 12.762 8.3042zm141.27 8.3914c-2.6824-1.047-6.4633-3.8025-7.7384-5.6398-3.8928-5.6087-4.5974-13.038-1.8014-18.994 1.4835-3.1602 5.828-7.3412 8.9696-8.632 3.4418-1.4142 8.7204-1.456 11.987-0.09485 4.8997 2.0416 9.4503 7.1454 9.6029 10.77l0.0656 1.5588-3.5156 0.14141-3.5156 0.14141-2.0331-2.1506c-2.3907-2.5289-3.7429-3.1635-6.7406-3.1635-4.9075 0-8.8314 4.2372-8.8314 9.5368 0 2.4459 0.64665 4.2547 2.1368 5.9768 3.6202 4.1838 9.8961 4.1285 13.594-0.1198 1.2561-1.4431 1.4378-1.4979 4.9677-1.4979 2.0151 0 3.7819 0.20613 3.9262 0.45807 0.98984 1.7289-4.4584 8.6347-8.5308 10.813-2.1239 1.1361-3.2281 1.3925-6.5496 1.5208-2.8766 0.11111-4.5543-0.064-5.9926-0.62537zm-124.85-0.47179c-0.1807-0.19505-0.32854-7.7347-0.32854-16.755 0-14.513 0.0808-16.434 0.70216-16.691 1.3402-0.55516 13.254-0.2827 15.788 0.36106 11.873 3.0167 16.157 19.099 7.5595 28.38-0.97563 1.0532-2.8407 2.5527-4.1446 3.3323-2.3597 1.4109-2.4097 1.4182-10.809 1.5725-4.6412 0.0852-8.5863-0.005-8.767-0.19966zm14.443-7.8904c0.92222-0.27644 2.4002-1.1883 3.2844-2.0263 3.806-3.6073 3.8048-9.5336-0.003-13.142-1.8606-1.7634-3.3848-2.1674-7.3999-1.9612l-2.8854 0.14816-0.1222 8.1434c-0.10858 7.236-0.0373 8.2104 0.63972 8.7448 0.9259 0.73082 4.2022 0.77801 6.486 0.0934zm17.929 7.8552c-0.16276-0.17569-0.29593-7.5884-0.29593-16.473 0-13.315 0.10995-16.252 0.62589-16.714 0.38266-0.34281 1.8058-0.50527 3.6622-0.41804l3.0363 0.14267 0.11665 16.891 0.11666 16.891h-3.4829c-1.9156 0-3.616-0.14375-3.7788-0.31945zm13.126-16.552 0.11667-16.91 4.928-0.13482c3.6734-0.1005 5.0522 0.02683 5.4161 0.50008 0.26847 0.34919 1.5598 3.8599 2.8695 7.8015 1.5529 4.6733 2.6011 7.1666 3.013 7.1666 0.41326 0 1.4403-2.4693 2.9715-7.1442 1.287-3.9293 2.5622-7.4332 2.8338-7.7865 0.51365-0.66808 8.4478-0.94994 9.8926-0.35144 0.62173 0.25753 0.70215 2.208 0.70215 17.029v16.738l-3.8841-0.13845-3.8841-0.13845-0.22195-7.1435c-0.17683-5.6913-0.33147-7.0006-0.76071-6.4406-0.29632 0.3866-1.5261 3.6012-2.7328 7.1435l-2.194 6.4406-2.8829 0.1406-2.8829 0.1406-0.70567-2.0573c-0.38813-1.1315-1.4567-4.3036-2.3746-7.0492-0.91787-2.7456-1.9131-5.0795-2.2117-5.1866-0.40796-0.14634-0.57339 1.5701-0.66585 6.9086l-0.12303 7.1033-3.6679 0.13927-3.6679 0.13927 0.11668-16.91zm36.294 16.508c0-0.95129 12.058-32.932 12.541-33.263 0.69757-0.47815 7.0384-0.50073 7.7168-0.0275 0.27755 0.19362 2.147 4.6645 4.1542 9.9354 2.0073 5.2708 4.8264 12.657 6.2648 16.414 1.4384 3.7571 2.6152 6.9375 2.6152 7.0677 0 0.13018-1.992 0.23669-4.4266 0.23669h-4.4266l-0.96242-2.415c-0.52933-1.3282-1.3208-2.622-1.7588-2.875-0.88319-0.51021-9.2364-0.63552-10.394-0.15592-0.40381 0.16727-1.2082 1.461-1.7875 2.875l-1.0533 2.5709h-4.2415c-2.3328 0.00002-4.2415-0.16356-4.2415-0.36349zm18.79-13.59c-0.0975-1.6171-2.0078-5.9504-2.5876-5.8699-0.63659 0.0883-2.578 5.811-2.2676 6.6842 0.19751 0.55559 0.82242 0.69685 2.5956 0.58675 2.2124-0.13738 2.3314-0.21116 2.2597-1.401zm-129.91-36.219c-0.16276-0.17569-0.29593-13.492-0.29593-29.591v-29.271l17.869-19.284 17.869-19.284h12.29c8.2744 0 12.386-0.16804 12.584-0.51432 0.16195-0.28287 0.28437-2.1756 0.27203-4.2062-0.0123-2.0305 0.1309-3.9596 0.31829-4.2869 0.25837-0.45127 2.6932-0.56382 10.075-0.46572l9.7341 0.12938 0.12966 4.2967c0.0813 2.695 0.32955 4.4338 0.66585 4.6645 0.2949 0.20232 6.0241 0.37115 12.732 0.37519l12.195 0.0073 17.324 18.682 17.324 18.682 0.13029 28.636c0.0717 15.75 0.0126 29.336-0.13109 30.193l-0.26138 1.5573h-70.264c-38.645 0-70.397-0.14375-70.56-0.31945zm130.54-11.407c0.4404-0.17784 0.53526-4.1969 0.4439-18.807l-0.1162-18.581-26.967-0.1235-26.967-0.1235v18.896c0 17.276 0.0636 18.909 0.74195 19.051 1.163 0.24285 52.236-0.0585 52.864-0.31191zm-71.233-49.34c-0.52235-1.0075-21.732-23.266-22.17-23.266-0.46165 0-21.905 23.098-21.905 23.595 0 0.19967 9.9976 0.36304 22.217 0.36304 19.241 0 22.169-0.09273 21.858-0.69232z"/>
  <path id="path4291" fill="#ed3931" d="m-353.24 122.17c-1.2982-0.484-3.0436-1.5948-3.8786-2.4684-1.5996-1.6736-3.1606-5.2925-2.66-6.1668 0.16493-0.28805 1.6514-0.51599 3.3651-0.51599 2.9717 0 3.092 0.0466 3.7685 1.4587 0.95973 2.0034 3.1332 3.329 5.4618 3.3312 1.5323 0.001 2.1831-0.28145 3.2183-1.3988 2.3101-2.4937 1.3448-5.8258-1.9697-6.7986-4.4461-1.305-7.711-2.5278-9.0196-3.3783-1.7154-1.1148-3.6973-5.1841-3.6837-7.5634 0.0226-3.9403 3.0816-7.9847 6.9159-9.1435 3.1767-0.96008 8.5323-0.40786 10.964 1.1305 2.3966 1.5161 3.8195 3.505 4.1685 5.8265l0.25281 1.6816h-3.0904c-2.8693 0-3.1343-0.08863-3.7046-1.2388-1.3377-2.6981-6.0522-3.7199-7.6061-1.6485-0.44425 0.59222-0.80773 1.544-0.80773 2.115 0 2.1462 1.1758 3.0262 6.4307 4.8127 5.685 1.9327 7.7973 3.4852 9.1657 6.7367 2.2608 5.3719-0.28537 11.363-5.7187 13.456-2.476 0.9538-8.7334 0.83072-11.572-0.22762zm33.338 0.21612c-4.3368-1.463-8.2886-5.1017-9.9537-9.165-2.9287-7.1468-1.5121-14.49 3.8075-19.739 3.4936-3.4466 6.4503-4.57 11.382-4.3244 4.8594 0.24196 7.8624 1.7254 11.004 5.4355 7.8937 9.3232 4.0262 24.174-7.236 27.786-2.6636 0.85415-6.4831 0.85704-9.0034 0.007zm7.3082-6.7407c1.6809-0.53884 2.7245-1.2855 4.0239-2.879 3.5606-4.3665 3.4352-9.5907-0.32778-13.653-2.605-2.812-5.28-3.6913-8.608-2.8295-2.9558 0.76543-6.2157 4.1041-6.9628 7.1311-0.99139 4.0166 0.49642 8.5158 3.5784 10.821 2.9201 2.1844 4.8529 2.5126 8.2963 1.4088zm142.75 6.5376c-5.0757-2.0352-8.4405-5.59-9.9614-10.523-2.582-8.3752 1.0146-17.329 8.4838-21.12 2.1433-1.088 3.0106-1.2389 7.1024-1.2359 4.1871 0.0029 4.8866 0.13265 6.8804 1.2751 3.3708 1.9315 5.8105 4.4533 7.1346 7.3747 0.65785 1.4514 1.0688 2.7763 0.91331 2.9442-0.15553 0.16789-1.703 0.28847-3.4388 0.26795-2.9781-0.0352-3.247-0.13136-4.7704-1.7058-2.3849-2.4649-4.3595-3.4023-7.1631-3.4005-4.093 0.0024-7.6661 2.6941-8.8898 6.6963-0.2926 0.95701-0.44706 3.0076-0.34324 4.5569 0.22775 3.3987 1.7924 5.8432 4.8028 7.5034 3.6393 2.0071 8.8681 1.1098 11.499-1.9732 0.98616-1.1557 1.3666-1.2611 4.55-1.2611 4.0351 0 4.1435 0.18182 2.0971 3.5168-1.7092 2.7854-3.8911 4.7656-7.0574 6.405-3.3066 1.712-8.519 2.0114-11.839 0.68002zm-124.66-0.61733c-0.1268-0.35668-0.17777-7.6546-0.11327-16.218l0.11726-15.569h8.4341c7.9724 0 8.5398 0.06087 10.365 1.1122 2.94 1.6936 5.685 4.686 7.0492 7.6846 1.084 2.3828 1.229 3.2428 1.2231 7.2553-0.006 4.2639-0.10278 4.7442-1.5244 7.587-1.5932 3.1859-3.7868 5.4388-7.125 7.3173-1.8392 1.035-2.6396 1.1382-10.096 1.3014-6.5138 0.14255-8.144 0.0503-8.3294-0.47127zm15.222-6.8942c2.5615-1.1533 4.4827-3.4647 5.251-6.3177 1.2028-4.466-0.58347-8.678-4.6105-10.872-1.0954-0.59671-2.4085-0.75784-5.3268-0.65366l-3.873 0.13827-0.12143 8.5623c-0.0838 5.9089 0.0362 8.7673 0.38727 9.224 0.71175 0.92575 6.1756 0.87213 8.2935-0.0814zm17.167 6.8485c-0.11787-0.33157-0.16154-7.6089-0.097-16.172l0.11726-15.569 3.2183-0.14078 3.2183-0.14078v16.313 16.313h-3.1212c-2.0982 0-3.1915-0.19758-3.3355-0.60285zm13.115-15.684v-16.328l4.9818 0.13548 4.9818 0.13548 1.3813 4.0729c0.7597 2.2401 1.934 5.744 2.6095 7.7865 0.92371 2.7928 1.4293 3.7135 2.0391 3.7135 0.8663 0 1.0723-0.50495 4.2517-10.419l1.7278-5.388 4.9939-0.0026 4.9938-0.0026v16.292 16.292h-3.3292-3.3292v-6.9087c0-7.2059-0.16054-8.4246-1.1098-8.4246-0.66606 0-0.5522-0.26851-3.5558 8.3854l-2.3283 6.7083-2.4403 0.14192c-2.01 0.1169-2.4962-0.01-2.7569-0.71875-0.1741-0.47337-1.1864-3.4933-2.2496-6.711-2.2776-6.8931-2.6917-7.806-3.5416-7.806-0.52379 0-0.66099 1.3603-0.76121 7.5469l-0.12224 7.5469-3.2183 0.14079-3.2183 0.14078v-16.328zm36.844 15.764c0-0.28726 2.616-7.6185 5.8133-16.292l5.8133-15.769h3.8919 3.8919l2.0272 5.3906c1.115 2.9648 3.7592 9.9187 5.8762 15.453 2.1169 5.5344 3.9519 10.44 4.0777 10.901 0.20523 0.75216-0.15947 0.83854-3.5407 0.83854h-3.7695l-1.2761-2.7552-1.2761-2.7552h-5.9926-5.9926l-1.2164 2.7552-1.2164 2.7552h-3.5555c-2.2702 0-3.5555-0.18882-3.5555-0.5223zm18.799-11.681c0.2905-0.81718-2.1473-7.4737-2.9277-7.9944-0.28977-0.19332-0.75767-0.14471-1.0398 0.10802-0.74695 0.66917-2.9731 7.5012-2.636 8.09 0.46734 0.81625 6.3049 0.63623 6.6035-0.20364zm-130.81-37.479c-0.16276-0.17569-0.29593-13.492-0.29593-29.591v-29.271l17.869-19.284 17.869-19.284h12.29c8.2744 0 12.386-0.16804 12.584-0.51432 0.16195-0.28287 0.28437-2.1756 0.27203-4.2062-0.0123-2.0305 0.1309-3.9596 0.31829-4.2869 0.25837-0.45127 2.6932-0.56382 10.075-0.46572l9.7341 0.12938 0.12966 4.2967c0.0813 2.695 0.32955 4.4338 0.66585 4.6645 0.2949 0.20232 6.0241 0.37115 12.732 0.37519l12.195 0.0073 17.324 18.682 17.324 18.682 0.13029 28.636c0.0717 15.75 0.0126 29.336-0.13109 30.193l-0.26138 1.5573h-70.264c-38.645 0-70.397-0.14375-70.56-0.31945zm130.54-11.407c0.4404-0.17784 0.53526-4.1969 0.4439-18.807l-0.1162-18.581-26.967-0.1235-26.967-0.1235v18.896c0 17.276 0.0636 18.909 0.74195 19.051 1.163 0.24285 52.236-0.0585 52.864-0.31191zm-71.233-49.34c-0.52235-1.0075-21.732-23.266-22.17-23.266-0.46165 0-21.905 23.098-21.905 23.595 0 0.19967 9.9976 0.36304 22.217 0.36304 19.241 0 22.169-0.09273 21.858-0.69232z"/>
  <path id="path4289" fill="#1279bd" d="m-324.17 72.451c-0.16276-0.17569-0.29593-13.492-0.29593-29.591v-29.271l17.869-19.284 17.869-19.284h12.29c8.2744 0 12.386-0.16804 12.584-0.51432 0.16195-0.28287 0.28437-2.1756 0.27203-4.2062-0.0123-2.0305 0.1309-3.9596 0.31829-4.2869 0.25837-0.45127 2.6932-0.56382 10.075-0.46572l9.7341 0.12938 0.12966 4.2967c0.0813 2.695 0.32955 4.4338 0.66585 4.6645 0.2949 0.20232 6.0241 0.37115 12.732 0.37519l12.195 0.0073 17.324 18.682 17.324 18.682 0.13029 28.636c0.0717 15.75 0.0126 29.336-0.13109 30.193l-0.26138 1.5573h-70.264c-38.645 0-70.397-0.14375-70.56-0.31945zm64.513-30.111v-19.41l-27.189 0.12347-27.189 0.12348-0.11628 18.686c-0.064 10.277-0.0203 18.956 0.097 19.286 0.1677 0.47162 6.0136 0.6001 27.305 0.6001h27.092v-19.41zm66.035 18.704c0.4404-0.17784 0.53526-4.1969 0.4439-18.807l-0.1162-18.581-26.967-0.1235-26.967-0.1235v18.896c0 17.276 0.0636 18.909 0.74195 19.051 1.163 0.24285 52.236-0.0585 52.864-0.31191zm-71.233-49.34c-0.52235-1.0075-21.732-23.266-22.17-23.266-0.46165 0-21.905 23.098-21.905 23.595 0 0.19967 9.9976 0.36304 22.217 0.36304 19.241 0 22.169-0.09273 21.858-0.69232z"/>
  <path id="path4287" fill="#5f5c5d" d="m-324.17 72.451c-0.16276-0.17569-0.29593-13.492-0.29593-29.591v-29.271l17.869-19.284 17.869-19.284h12.29c8.2744 0 12.386-0.16804 12.584-0.51432 0.16195-0.28287 0.28437-2.1756 0.27203-4.2062-0.0123-2.0305 0.1309-3.9596 0.31829-4.2869 0.25837-0.45127 2.6932-0.56382 10.075-0.46572l9.7341 0.12938 0.12966 4.2967c0.0813 2.695 0.32955 4.4338 0.66585 4.6645 0.2949 0.20232 6.0241 0.37115 12.732 0.37519l12.195 0.0073 17.324 18.682 17.324 18.682 0.13029 28.636c0.0717 15.75 0.0126 29.336-0.13109 30.193l-0.26138 1.5573h-70.264c-38.645 0-70.397-0.14375-70.56-0.31945zm64.513-30.111v-19.41l-27.189 0.12347-27.189 0.12348-0.11628 18.686c-0.064 10.277-0.0203 18.956 0.097 19.286 0.1677 0.47162 6.0136 0.6001 27.305 0.6001h27.092v-19.41zm66.035 18.704c0.4404-0.17784 0.53526-4.1969 0.4439-18.807l-0.1162-18.581-26.967-0.1235-26.967-0.1235v18.896c0 17.276 0.0636 18.909 0.74195 19.051 1.163 0.24285 52.236-0.0585 52.864-0.31191zm-71.233-49.34c-0.52235-1.0075-21.732-23.266-22.17-23.266-0.46165 0-21.905 23.098-21.905 23.595 0 0.19967 9.9976 0.36304 22.217 0.36304 19.241 0 22.169-0.09273 21.858-0.69232zm66.715 0.18981c0.70744-0.27555-1.1653-2.4737-11.135-13.07l-11.985-12.738-26.301-0.02184c-14.466-0.01202-26.301 0.15258-26.301 0.36576 0 0.68047 22.894 24.962 24.009 25.464 1.2128 0.54614 50.311 0.54644 51.713 0.000312z"/>
  <path id="path4285" fill="#231f20" d="m-323.73 71.493c-0.16276-0.17569-0.29593-13.162-0.29593-28.857v-28.538l17.751-19.179 17.751-19.179 12.767-0.23958 12.767-0.23958 0.22195-4.5521 0.22194-4.5521h9.3219 9.3219l0.22195 4.5521 0.22195 4.5521 12.768 0.23958 12.768 0.23958 17.085 18.461 17.085 18.461v29.576 29.576h-69.84c-38.412 0-69.973-0.14375-70.136-0.31945zm63.811-9.5547c0.6242-0.25855 0.70215-2.4341 0.70215-19.595 0-17.16-0.0779-19.336-0.70215-19.595-0.38618-0.15997-12.631-0.29085-27.211-0.29085-20.026 0-26.639 0.14062-27.042 0.575-0.39613 0.42761-0.53267 5.3773-0.53267 19.31s0.13654 18.883 0.53267 19.31c0.40242 0.43438 7.0154 0.575 27.042 0.575 14.58 0 26.825-0.13088 27.211-0.29085zm67.181-19.323c0.091-15.182-0.005-19.458-0.44389-19.758-0.30799-0.21105-12.555-0.38703-27.216-0.39106-20.148-0.0056-26.786 0.13304-27.189 0.56766-0.7679 0.82891-0.76467 37.795 0.004 38.624 0.40963 0.44218 6.9264 0.54953 27.633 0.45521l27.096-0.12344 0.11607-19.375zm-71.362-30.335c0-1.0363-21.88-24.321-22.854-24.321-0.97834 0-22.867 23.274-22.867 24.314 0 0.47616 4.7954 0.60255 22.861 0.60255 17.921 0 22.861-0.12868 22.861-0.59543zm66.761-0.28375c0.20642-0.36052-22.342-25.032-23.772-26.01-0.98456-0.67356-52.639-0.53353-53.027 0.14374-0.20541 0.35877 4.1438 5.2763 11.848 13.396l12.173 12.829 26.275 0.02036c14.451 0.01121 26.378-0.15964 26.504-0.37965z"/>
 </g>
</svg>
