<?xml version="1.0" encoding="UTF-8" standalone="no"?>
<!-- Created with Inkscape (http://www.inkscape.org/) -->
<svg id="svg2" xmlns:rdf="http://www.w3.org/1999/02/22-rdf-syntax-ns#" xmlns="http://www.w3.org/2000/svg" height="100" viewBox="0 0 165 100" width="165" version="1.1" xmlns:cc="http://creativecommons.org/ns#" xmlns:dc="http://purl.org/dc/elements/1.1/">
 <metadata id="metadata7">
  <rdf:RDF>
   <cc:Work rdf:about="">
    <dc:format>image/svg+xml</dc:format>
    <dc:type rdf:resource="http://purl.org/dc/dcmitype/StillImage"/>
    <dc:title/>
   </cc:Work>
  </rdf:RDF>
 </metadata>
 <g id="g5229" transform="translate(-.18186 .14581)">
  <path id="path4671" d="m38.819 79.05c-4.2405-1.4647-6.9527-5.697-6.9527-10.85 0-3.9549 1.4209-7.4053 4.046-9.8251 1.8017-1.6608 3.57-2.4231 6.1157-2.6365 2.2808-0.19122 6.0212 0.37906 6.0121 0.91664-0.0032 0.18733-0.18374 1.0147-0.40124 1.8387-0.31628 1.1981-0.51011 1.4811-0.96799 1.413-0.31489-0.0468-1.3967-0.16489-2.4041-0.26244-3.2161-0.31143-5.7702 1.0164-7.1235 3.7034-0.66329 1.3169-0.67534 6.8387-0.01836 8.4139 1.201 2.8794 3.8711 4.1769 7.9487 3.8625l2.295-0.17698 0.18884 1.3777c0.29116 2.1243 0.29292 2.121-1.324 2.4677-2.2914 0.49142-5.6021 0.38287-7.4144-0.2431z" fill="#048b50"/>
  <path id="path5213" d="m53.567 79.181c-2.5662-1.1163-4.6233-4.6944-4.6575-8.1015-0.03526-3.5104 1.3042-6.058 4.0912-7.781 1.1993-0.74147 1.8513-0.9216 3.6678-1.0133 2.6956-0.13612 3.5875 0.1986 5.205 1.9534 1.9098 2.0719 2.3676 3.3644 2.3753 6.7064 0.0057 2.4866-0.09526 3.0668-0.76892 4.4187-0.95998 1.9264-2.7382 3.4878-4.4683 3.9235-1.7743 0.44678-4.2859 0.3978-5.4445-0.10619zm4.6309-3.3265c1.2236-0.85701 1.5631-1.9865 1.5631-5.1999 0-2.9291-0.02218-3.0259-0.9299-4.0598-1.0849-1.2356-2.2669-1.3913-3.7407-0.49258-2.2048 1.3444-2.3738 7.1758-0.27378 9.4418 0.83961 0.90596 2.3351 1.0433 3.3813 0.31044z" fill="#048b50"/>
  <path id="path5215" d="m71.29 79.057c-2.7175-1.2345-4.28-3.7557-4.5514-7.3441-0.21487-2.8411 0.44384-5.1682 1.9279-6.8108 1.6192-1.7923 3.1062-2.4436 5.926-2.5955 2.3193-0.12498 2.4453-0.0966 3.8871 0.87569 2.6917 1.8151 3.9343 4.6694 3.6882 8.4716-0.32303 4.9891-3.3268 7.9756-8.0032 7.9572-0.964-0.0038-2.1787-0.23792-2.8746-0.55404zm5.2402-3.5782c1.5828-1.5828 1.8538-5.172 0.60742-8.0451-0.84491-1.9478-2.5409-2.4754-4.1877-1.3029-2.4073 1.7141-2.3886 8.0086 0.02882 9.7019 1.1017 0.77163 2.5725 0.62508 3.5514-0.35384z" fill="#048b50"/>
  <path id="path5217" d="m85.229 70.929v-8.3894h1.4688c1.3626 0 1.4914 0.06498 1.7821 0.89886 0.17234 0.49438 0.40208 0.89886 0.51053 0.89886s0.74415-0.4332 1.4127-0.96268c1.009-0.79914 1.5327-0.98287 3.0826-1.0816 1.8518-0.11791 1.877-0.10874 3.0622 1.1125 0.65726 0.67726 1.2892 1.2314 1.4044 1.2314 0.11514 0 0.81693-0.49787 1.5595-1.1064 1.136-0.93084 1.6193-1.1236 3.0466-1.215 3.0171-0.19321 4.4301 1.357 5.1215 5.619 0.3507 2.1616 0.42441 7.8433 0.12966 9.9937l-0.19053 1.3901h-1.9068-1.9068v-5.4987c0-5.23-0.0334-5.5484-0.68445-6.5168-1.0904-1.622-3.1271-1.5662-4.0101 0.10984-0.4101 0.77844-0.53645 2.0467-0.6413 6.4375l-0.13057 5.4681h-1.8775-1.8775l-0.12767-5.3183c-0.13667-5.693-0.464-7.1838-1.7255-7.859-0.50885-0.27233-0.86349-0.23158-1.7458 0.2006-1.7198 0.8424-1.8517 1.3755-1.8566 7.5085l-0.0044 5.4681h-1.9475-1.9475v-8.3894z" fill="#048b50"/>
  <path id="path5219" d="m115.45 79.201c-2.352-0.84025-3.8465-2.6016-4.6144-5.4383-1.2043-4.4491 0.89993-9.585 4.5524-11.111 0.54226-0.22657 1.784-0.41195 2.7594-0.41195 1.5048 0 1.9923 0.14753 3.218 0.97377 2.0573 1.3868 2.9365 3.2202 3.0723 6.4063l0.10455 2.4538-4.7992 0.10176c-2.6396 0.05597-4.8987 0.20151-5.0203 0.32342-0.3407 0.34157 0.80831 2.635 1.5702 3.1343 0.51951 0.34039 1.4114 0.42049 3.8082 0.34201l3.1299-0.10248 0.17319 1.0487c0.33477 2.027 0.36066 1.9976-2.0796 2.3606-2.8912 0.43002-4.5072 0.40782-5.8747-0.0807zm5.046-11.343c-0.44595-3.3248-4.6848-3.5421-5.589-0.28646-0.16955 0.61047-0.30903 1.2111-0.30995 1.3347-0.00092 0.12359 1.3644 0.22472 3.034 0.22472h3.0357l-0.17073-1.2729z" fill="#048b50"/>
  <path id="path5221" d="m129.84 78.494c-1.596-4.1174-5.0554-14.774-5.0578-15.58-0.00081-0.26577 0.63864-0.37453 2.202-0.37453h2.2032l1.3174 5.1346c1.2642 4.9272 1.7894 6.3283 2.2134 5.9043 0.10779-0.10778 0.66238-2.13 1.2324-4.4939 0.57006-2.3638 1.1722-4.8035 1.3382-5.4215l0.30173-1.1236h2.1096 2.1096l-0.20187 0.97377c-0.27188 1.3114-3.3042 10.589-4.4067 13.483l-0.8847 2.3221h-2.0785c-1.9903 0-2.0921-0.03497-2.3979-0.82396z" fill="#048b50"/>
  <path id="path5223" d="m143.16 79.339c-1.2796-0.581-2.5414-2.2817-2.9626-3.9929-0.72368-2.9403 2.2818-6.1113 6.3138-6.6616 2.7875-0.38044 2.9592-0.56561 2.0873-2.2516-0.59996-1.1602-1.9981-1.4159-4.4375-0.81153-1.0196 0.2526-1.956 0.36255-2.0808 0.24433-0.12485-0.11822-0.25968-0.73863-0.29963-1.3787-0.0712-1.1405-0.0427-1.1751 1.4255-1.7308 2.2603-0.85556 5.9133-0.64702 7.5409 0.43048 2.2358 1.4801 2.796 3.7 2.796 11.079v5.0527h-1.6748c-1.3321 0-1.7775-0.12688-2.177-0.62016l-0.50217-0.62016-1.7485 0.91978c-2.0282 1.0669-2.5851 1.1113-4.2806 0.34148zm4.7353-3.3409c0.7909-0.42328 1.453-2.0463 1.453-3.5617 0-1.1214-0.0591-1.2072-0.82396-1.195-1.1001 0.01756-2.9735 0.70449-3.6902 1.3531-0.76561 0.69287-0.74981 2.2329 0.0315 3.0716 0.6667 0.71562 2.033 0.86535 3.0296 0.332z" fill="#048b50"/>
  <path id="path5225" d="m11.821 58.642c0-0.59426 2.1969-5.9117 4.0275-9.7481 4.5383-9.511 12.419-21.582 17.548-26.879l2.1034-2.1722 0.84393 0.97677c1.5896 1.8398 9.609 16.376 9.2386 16.747-0.07329 0.07329-1.7206-2.334-3.6606-5.3495-3.9937-6.2076-4.2375-6.5315-4.9192-6.5315-2.4625 0-17.669 19.611-23.058 29.737-1.8035 3.3887-2.1235 3.8737-2.1235 3.2189z" fill="#048b50"/>
  <path id="path5227" d="m14.536 68.619c-0.02747-0.56505 2.8304-7.0003 5.1105-11.508 3.5557-7.0289 8.9706-15.266 13.46-20.475 3.9824-4.6204 3.5777-4.4476 5.1662-2.2068 2.7705 3.9083 9.2283 15.601 8.8341 15.995-0.06586 0.06586-1.7605-2.3387-3.7659-5.3434-5.0195-7.5209-4.5986-7.0463-5.6451-6.3646-3.3667 2.1931-12.645 13.873-19.385 24.402-1.6741 2.6154-3.2044 5.0043-3.4007 5.3087-0.1963 0.30443-0.36484 0.39043-0.37453 0.19112z" fill="#8dc447"/>
 </g>
</svg>
