<?xml version="1.0" encoding="UTF-8" standalone="no"?>
<!-- Created with Inkscape (http://www.inkscape.org/) -->
<svg id="svg2" xmlns:rdf="http://www.w3.org/1999/02/22-rdf-syntax-ns#" xmlns="http://www.w3.org/2000/svg" height="100" viewBox="0 0 165 100" width="165" version="1.1" xmlns:cc="http://creativecommons.org/ns#" xmlns:dc="http://purl.org/dc/elements/1.1/">
 <metadata id="metadata7">
  <rdf:RDF>
   <cc:Work rdf:about="">
    <dc:format>image/svg+xml</dc:format>
    <dc:type rdf:resource="http://purl.org/dc/dcmitype/StillImage"/>
    <dc:title/>
   </cc:Work>
  </rdf:RDF>
 </metadata>
 <text id="text4133" style="word-spacing:0px;letter-spacing:0px" font-weight="bold" xml:space="preserve" transform="scale(.94427 1.059)" line-height="125%" font-size="22.987px" y="39.697105" x="3.6747544" font-family="&apos;Times New Roman&apos;" fill="#1b934f"><tspan id="tspan4137" x="3.6747544" y="39.697105"/><tspan id="tspan4139" x="3.6747544" y="68.431305">BOLÍVAR</tspan></text>
 <text id="text4133-4" style="word-spacing:0px;letter-spacing:0px" xml:space="preserve" transform="scale(.91283 1.0955)" line-height="125%" font-size="13.143px" y="44.083" x="4.3662572" font-family="&apos;Times New Roman&apos;" fill="#1b934f"><tspan id="tspan4162" x="4.3662572" y="44.083">SEGUROS</tspan></text>
 <path id="path4178" d="m108.41 35.625v-9.3398h6.5917c6.0664 0 7.2697 0.14483 6.2809 0.75594-0.17092 0.10564-0.63645 0.86718-1.0345 1.6923-0.9703 2.0113-0.75268 2.3874 2.0278 3.5043 0.4578 0.18388 0.90822 0.57145 1.0009 0.86127 0.0927 0.28981 0.28069 0.79659 0.41772 1.1262 0.13703 0.32958 0.32961 0.97002 0.42797 1.4232 0.15825 0.72915 0.0915 0.82396-0.58046 0.82396-1.4476 0-4.5092 1.0313-7.2894 2.4556-3.1936 1.636-3.7462 2.0289-6.1198 4.3513l-1.7228 1.6856v-9.3398z" stroke="#fff" stroke-width="1.1985" fill="none"/>
 <path id="path4180" d="m137.88 71.888-1.5395-0.0894 1.5785-1.6298c2.1044-2.1728 2.5491-3.1901 2.5491-5.8318 0-2.3369-0.46146-3.6793-1.6479-4.7939-0.66735-0.62694-0.68437-0.7191-0.25413-1.3757 0.26847-0.40974 0.47834-1.4523 0.50232-2.4953 0.045-1.9564-0.54322-3.1297-1.925-3.8398-1.0105-0.51932-4.4255-0.47419-5.4734 0.07233-1.204 0.62793-1.216 0.59924-0.34506-0.8258 0.42803-0.70036 1.0761-1.901 1.4402-2.6681 0.56717-1.195 0.81615-1.4197 1.7389-1.5691 1.7936-0.29038 5.0653-3.7852 5.0653-5.4107 0-0.80663-0.80547-0.51098-2.8746 1.0551-2.2014 1.6662-2.5057 1.6211-2.514-0.37256-0.007-1.6711-1.5033-3.4233-4.0034-4.6881-2.2248-1.1256-2.8701-2.0553-3.3346-4.8047-0.157-0.92926-0.53307-1.5809-1.3844-2.399l-1.1689-1.1232 0.97337-0.91197c1.8152-1.7007 2.3084-1.9014 4.6722-1.9014 1.9688 0 2.174 0.05204 1.8317 0.46447-0.51589 0.62161 0.019 1.131 1.8102 1.7241 1.0131 0.33541 2.1799 0.40657 4.6931 0.2862 1.8396-0.0881 3.511-0.26287 3.714-0.38837 0.53663-0.33166 0.11764-1.1509-0.75911-1.4842-0.41621-0.15824-0.75674-0.35846-0.75674-0.44494s3.1011-0.15723 6.8913-0.15723h6.8913v7.1909 7.1909h-0.95249c-0.52388 0-1.3666 0.1224-1.8726 0.27201-0.50607 0.14961-1.7291 0.50982-2.7179 0.80047-2.2512 0.66176-2.8059 1.1007-2.245 1.7765 0.30381 0.36607 0.68375 0.43422 1.5783 0.28308 1.8518-0.31286 4.9716 0.12418 5.6371 0.78968 0.51378 0.51378 0.57253 1.0434 0.57253 5.1607v4.5881l-1.2492 2.0784c-2.0453 3.4028-3.3569 5.1103-7.4398 9.6847-5.22 5.8485-5.3207 5.9244-7.6817 5.7873zm7.9813-28.56c0-0.16513-0.53889-1.4451-1.1975-2.8444-0.65864-1.3993-1.4123-3.245-1.6748-4.1015-0.96706-3.1559-1.5219-3.619-2.3492-1.9607-0.59915 1.201-0.60321 3.1607-0.009 4.5817 1.0502 2.5136 5.2309 5.9701 5.2309 4.3249zm-3.4456-12.099c0-1.3222-5.2925-2.5837-7.0018-1.669-0.88196 0.47201-0.79899 1.1691 0.18538 1.5576 0.45318 0.17886 1.0262 0.44048 1.2734 0.58136 0.24718 0.14088 1.5955 0.2276 2.9962 0.19271 2.3259-0.05794 2.5468-0.11542 2.5468-0.66269z" stroke="#fff" stroke-width="1.1985" fill="none"/>
 <path id="path4182" d="m121.46 71.85-2.0762-0.17181 1.4624-1.7977c1.9651-2.4157 3.5722-3.8973 5.4614-5.0352 2.7089-1.6316 1.7282-2.6717-1.4132-1.4988-0.74707 0.27892-1.8612 0.81824-2.4759 1.1985-0.61469 0.38024-1.2487 0.69135-1.4089 0.69135-0.16019 0-1.7933 1.4831-3.6292 3.2958l-3.3379 3.2958h-2.8187-2.8187v-5.0574-5.0574l1.4561-1.3095c1.761-1.5838 2.6266-2.2961 3.86-3.1765l0.93649-0.66852-0.16926 1.043c-0.13005 0.80142-0.0655 1.043 0.27877 1.043 0.7731 0 2.2635-1.578 3.2123-3.4012 0.81252-1.5613 0.91243-2.0386 0.91243-4.3595 0-1.4704-0.14135-2.7476-0.32435-2.9306-0.23271-0.23271 0.40214-0.80278 2.2472-2.0178 2.4939-1.6423 2.8785-2.0469 2.2914-2.4098-0.76246-0.47122-6.3266 1.6758-7.9595 3.0713-1.7426 1.4893-2.2472 2.4547-2.2472 4.3001 0 0.98694 0.13958 2.0552 0.31017 2.374 0.34583 0.64619 1.4483 0.78645 1.6114 0.20502 0.60318-2.1499 0.95672-2.981 1.5789-3.7117l0.7302-0.85754-0.18869 1.1985c-0.177 1.1243-0.39566 1.8437-1.4541 4.7835-0.3962 1.1005-1.0899 1.8038-1.0899 1.105 0-0.34858-1.3186-0.02919-2.6768 0.64838-1.1499 0.57364-1.3713 0.30997-2.0081-2.3909-0.45341-1.9233-0.4694-2.4071-0.12478-3.7752 0.54727-2.1726 1.5869-3.8492 3.4294-5.5305 1.605-1.4645 5.4872-3.6592 7.5624-4.275 2.2068-0.65488 4.5337-1.0845 4.9761-0.91882 0.24444 0.09155 1.476 1.3799 2.7368 2.8631 1.8717 2.2017 2.2626 2.8341 2.1301 3.4456-0.19832 0.91535-1.6528 3.8944-2.1677 4.44-0.20599 0.21823-0.37453 0.49619-0.37453 0.61768s-0.88972 1.1373-1.9772 2.2573c-2.2003 2.2662-2.3687 2.3023-5.0475 1.082-1.6587-0.75561-1.6644-0.75532-1.6644 0.08626 0 0.66616 1.1615 2.0021 2.0974 2.4124 0.24719 0.10837 0.85392 0.45535 1.3483 0.77108 0.94265 0.60201 1.8283 0.77532 1.9975 0.3909 0.0549-0.12482 0.6729-0.67547 1.3733-1.2237 1.335-1.0449 1.5733-0.87534 0.9763 0.69489-0.39848 1.0481 0.20092 2.9453 1.2481 3.9503 1.0284 0.98698 3.5433 1.3829 3.5433 0.55786 0-0.2861-0.34714-0.79325-0.77143-1.127-1.6705-1.314-1.6202-3.3776 0.1304-5.3494 0.90968-1.0247 1.3234-1.2545 2.4958-1.3865 2.1047-0.23689 2.8367 0.04578 3.2337 1.2488 0.24554 0.74401 0.25254 1.3528 0.025 2.1724-0.45424 1.6358-0.40021 2.1874 0.21429 2.1874 0.37472 0 0.65363 0.40575 0.93578 1.3613 0.35399 1.1989 0.33832 1.5653-0.13129 3.0711-0.44137 1.4152-0.92521 2.1005-2.8084 3.9776-1.3402 1.3359-2.9458 2.5979-3.907 3.0711-1.4742 0.72576-1.9228 0.79826-4.6441 0.75046-1.6568-0.02909-3.9466-0.13022-5.0885-0.22472z" stroke="#fff" stroke-width="1.1985" fill="none"/>
 <path id="path4184" d="m131.31 42.832c-0.53046-0.36495-1.9317-2.3483-1.9317-2.7341 0-0.49093 1.7535 0.53954 2.1427 1.2592 0.36912 0.68257 0.21395 1.7673-0.21099 1.475z" fill-rule="evenodd" stroke="#fff" stroke-width="1.1985" fill="#f00"/>
 <path id="path4188" d="m144.96 71.965c0-0.08906 2.0924-2.2126 4.6499-4.719l4.6499-4.5571-0.006 4.719-0.006 4.719h-4.6441c-2.5543 0-4.6441-0.07286-4.6441-0.16192z" stroke="#fff" stroke-width="1.1985" fill="none"/>
 <path id="path4194" d="m108.26 58.547c-0.0354-0.09216-0.0643-0.61371-0.0643-1.159 0-1.0104 0.13056-1.353 0.36421-0.95572 0.0619 0.10521 0.31656 0.47324 0.56599 0.81784 0.5298 0.73195 0.49001 0.86927-0.38597 1.332-0.32672 0.1726-0.40234 0.16706-0.47993-0.03515zm1.0296-0.58068 0.23022-0.0067-0.23835-0.0958c-0.13109-0.05269-0.23835-0.16303-0.23835-0.2452s-0.099-0.21512-0.21997-0.29545c-0.12099-0.08033-0.25912-0.31258-0.30695-0.5161-0.066-0.28082-0.0896-0.11873-0.0978 0.67222l-0.0108 1.0423 0.32592-0.27425c0.17926-0.15084 0.42953-0.27727 0.55615-0.28096z" fill-rule="evenodd" stroke="#fff" stroke-width=".42373" fill="#f00"/>
 <path id="path4196" d="m108.1 58.538c-0.14779-0.53222-0.14556-1.7152 0.004-2.1443 0.15895-0.45597 0.36507-0.39464 0.85745 0.25513 0.52583 0.69389 0.74757 1.1734 0.66416 1.4362-0.0778 0.24518-0.71202 0.6894-1.129 0.7908-0.25882 0.06294-0.2936 0.03332-0.39665-0.33783zm0.83924-0.72298c0-0.07403-0.0715-0.19394-0.1589-0.26647-0.13541-0.11238-0.1589-0.08348-0.1589 0.19557 0 0.24754 0.0388 0.31256 0.1589 0.26647 0.0874-0.03354 0.1589-0.12154 0.1589-0.19557z" stroke="#fff" stroke-width=".42373" fill="none"/>
 <g id="g4821" transform="matrix(.78442 0 0 .86929 23.969 2.9315)">
  <path id="path4768" fill="#fad85a" d="m143.7 92.59c0-0.19659 0.30565-0.6462 0.67922-0.99916 1.5685-1.4819 6.8444-7.0478 6.8444-7.2206 0-0.1033-7.6183-0.18896-16.929-0.19036-13.16-0.002-16.999-0.06807-17.242-0.29678-0.26164-0.24658-0.31221-1.2504-0.31221-6.1981 0-3.4901-0.0796-5.9039-0.19476-5.9039-0.3225 0-1.0692 1.3541-1.4818 2.6873-0.82618 2.6692-0.72608 5.1126 0.31526 7.6955 0.28744 0.71294 0.47051 1.392 0.40682 1.509-0.28954 0.53199-2.445-1.4098-3.4993-3.1524-2.109-3.4859-1.1926-7.1882 2.7009-10.911l1.7529-1.6762v-2.4413c0-1.8868-0.10639-2.8108-0.4684-4.0682-0.6357-2.2079-0.65928-6.1359-0.0454-7.5598 0.38689-0.89734 0.41499-1.6568 0.51377-13.883l0.1045-12.934 7.9416-0.11866 7.9416-0.11866 1.2035-0.89857c1.1322-0.84528 3.0239-1.9075 4.4392-2.4926 1.4846-0.61381 3.0614-0.81858 5.4571-0.70872 2.6252 0.12039 4.182 0.57561 6.1419 1.796 2.1415 1.3334 2.087 1.9379-0.11359 1.2592-2.3187-0.71506-5.2792-1.0187-7.0441-0.72249-2.3492 0.39432-4.6482 1.2684-4.4232 1.6817 0.0611 0.1123 6.4526 0.20419 14.203 0.20419h14.092l0.0547 9.3008 0.0547 9.3008 1.3584 0.28881c2.7134 0.57688 4.2801 1.7817 5.1969 3.9965 0.65846 1.5907 0.67214 5.5076 0.0278 7.9643-0.90176 3.4383-2.2551 6.323-5.0575 10.78l-1.6302 2.5927v6.3406c0 5.5628-0.0405 6.3582-0.33058 6.4846-0.18182 0.07922-2.845 0.14405-5.9183 0.14405h-5.5877l-2.2976 1.9579c-2.8975 2.4691-6.5699 5.3739-7.8621 6.2189-0.77051 0.5038-0.9927 0.56908-0.9927 0.29165zm24.018-32.278c0.67187-1.7005 1.2702-4.4324 1.2702-5.7998 0-0.50527-0.14208-1.462-0.31573-2.126-0.33163-1.2681-1.402-2.8184-1.7684-2.5613-0.23924 0.16791-0.31191 11.562-0.0755 11.83 0.23576 0.26772 0.27817 0.20366 0.88938-1.3432z"/>
  <path id="path4758" fill="#0f8d44" d="m151.63 84.918c8.3932-9.1407 13.927-16.942 16.669-23.499 1.4475-3.4615 1.7058-4.5759 1.7002-7.3367-0.004-1.8524-0.088-2.4421-0.46456-3.252-0.94105-2.0238-3.056-3.3062-5.8979-3.5761-0.86372-0.08203-1.5704-0.21994-1.5704-0.30646 0-0.39609 3.1849-1.0536 5.088-1.0503 2.7235 0.0047 4.1941 0.58938 5.5308 2.1992 1.7127 2.0626 2.0627 4.6436 1.1517 8.4905-1.9932 8.4164-9.0587 18.255-20.039 27.902-2.4759 2.1755-5.8264 4.8437-6.0822 4.8437-0.0773 0 1.6839-1.9869 3.9137-4.4153zm-26.728-1.4528c-0.36652-0.41177 3.0876-4.5904 5.3631-6.488 1.6421-1.3694 4.108-2.8912 4.6654-2.8793 0.1895 0.004 0.061 0.21614-0.318 0.52482-2.1665 1.7645-4.898 5.3409-6.2972 8.2447-0.35106 0.72861-0.4018 0.74951-1.8197 0.74951-0.80219 0-1.5193-0.06828-1.5936-0.15175zm18.094-0.02688c0.005-0.09825 0.59901-0.60736 1.3199-1.1314 0.7209-0.524 2.0788-1.8102 3.0176-2.8582 2.0655-2.3058 2.9458-4.1444 3.3168-6.9276l0.25134-1.8851 0.31432 0.83364c1.1549 3.063-0.0749 6.875-3.1605 9.7971-2.0771 1.967-2.7213 2.3501-3.9519 2.3501-0.61424 0-1.1127-0.08039-1.1076-0.17864zm-28.896-1.5089c-0.44552-0.29148-1.8657-2.447-2.2302-3.385-0.37346-0.96096-0.32763-3.6145 0.0776-4.495 0.68906-1.4971 1.7901-2.9788 3.0924-4.1618 1.5324-1.392 3.3842-2.7519 3.5277-2.5907 0.0534 0.06-0.43009 0.74887-1.0744 1.5308-1.318 1.5994-2.5202 3.72-2.9156 5.1429-0.14561 0.524-0.34795 1.1989-0.44963 1.4998-0.40262 1.1914-0.11762 4.3977 0.56004 6.3006 0.16645 0.46739-0.0333 0.5212-0.5878 0.15838zm25.63-11.911c-0.31049-0.27438-0.75265-0.9132-0.98261-1.4196-1.2346-2.7188 0.57715-6.8957 3.8766-8.9374 0.99117-0.61333 1.3176-0.68813 3.0193-0.69183 1.6015-0.0035 2.0285 0.08008 2.6581 0.52 1.008 0.70438 1.6879 2.1133 1.6879 3.4978 0 1.3232-0.31911 1.4485-0.52426 0.20575-0.31104-1.8842-2.019-3.3927-3.8218-3.3756-1.9096 0.01819-4.4084 1.966-5.4692 4.2632-0.79611 1.724-0.81466 4.0205-0.0428 5.2967 0.78269 1.2941 0.6242 1.5472-0.40132 0.64087zm-7.0717-5.4627c-0.61215-0.39442-1.113-0.74384-1.113-0.77648s0.71109-0.019 1.5802 0.0303l1.5802 0.08965 1.6609-1.8714c1.9854-2.237 3.3424-4.3274 4.5844-7.0619 0.88966-1.9588 1.6184-4.0941 1.6184-4.742 0-0.17361-0.84087-1.2789-1.8686-2.4562s-2.2751-2.8164-2.7719-3.6424c-1.1756-1.9545-1.5147-2.1196-3.5862-1.7459-3.3734 0.60868-7.3078 2.3558-10.597 4.7058-1.8606 1.3293-4.5178 4.4783-5.3091 6.2919-1.1846 2.7148-1.6225 5.7855-1.1109 7.7899 0.35803 1.4025-0.13814 1.0335-0.64259-0.47788-0.38654-1.1581-0.4951-1.9579-0.4926-3.6291 0.004-2.7159 0.66683-4.7964 2.2384-7.0265 3.2177-4.566 10.308-8.9324 15.278-9.4089 2.0702-0.19848 2.2786-0.43816 1.7082-1.9643-0.23255-0.62218-0.62481-1.8942-0.87168-2.8267-0.24686-0.93249-0.59692-1.8335-0.77788-2.0022-0.18098-0.16874-0.91154-0.53215-1.6235-0.80758-1.6442-0.6361-1.823-0.94274-1.3543-2.3218 0.81884-2.4089 2.7696-4.5273 5.634-6.1182 1.8252-1.0137 2.6718-1.3333 4.8369-1.8263 1.9477-0.44343 2.5177-0.44147 4.4912 0.01543 2.0167 0.4669 2.99 0.82746 3.392 1.2566 0.27605 0.29464 0.13622 0.31324-1.06 0.14104-3.2568-0.46881-6.3227-0.17236-8.7315 0.84427-2.3736 1.0018-5.8966 4.4991-5.8966 5.8536 0 0.42524 0.25875 0.71494 1.0958 1.2268 1.1765 0.71947 1.2871 0.87784 1.633 2.3374 0.69546 2.935 1.4384 5.2693 1.8197 5.7176 0.23846 0.28038 0.81517 0.64915 1.2816 0.81949 1.7344 0.63344 2.6649 1.2409 3.7884 2.4733 1.0516 1.1534 1.1669 1.3848 1.3037 2.6149 0.0825 0.74226 0.0874 1.7245 0.0109 2.1829-0.18446 1.1047 0.15974 1.7938 0.89342 1.7888 0.58921-0.0039 1.5032-0.53706 3.0147-1.7583 0.46998-0.37971 0.90121-0.63792 0.95828-0.57381 0.25655 0.28823-0.98243 1.8325-2.2197 2.7666-1.1961 0.90303-1.4552 1.0078-2.1608 0.87388l-0.80179-0.15219-0.94358 2.2225c-0.51897 1.2224-1.541 3.1657-2.2712 4.3185-1.4444 2.2804-6.1401 7.5518-6.7238 7.5481-0.19835-0.0013-0.86148-0.32495-1.4736-0.71936zm10.25-16.941c0.27593-0.50158 0.10394-1.8844-0.31697-2.5485-0.47104-0.7432-2.4553-2.0443-2.777-1.8209-0.11694 0.0812-0.21263 0.28371-0.21263 0.45002 0 0.72132 2.4242 4.195 2.9275 4.195 0.12511 0 0.29568-0.12402 0.37907-0.2756zm-17.219 15.46c0.26422-0.68775 0.74695-2.2151 1.0727-3.3941 0.89162-3.2267 0.98737-3.352 0.88754-1.1618-0.0905 1.9856-0.52239 3.4662-1.4674 5.0306-0.74938 1.2406-1.0432 0.9576-0.4929-0.47474zm-2.6944-4.3865c-0.25148-0.28254-0.14978-2.4544 0.15187-3.243 0.40573-1.0606 1.9061-2.68 3.3865-3.6552 1.466-0.96568 2.702-1.5727 2.8542-1.4016 0.0598 0.06722 0.069 0.1533 0.0205 0.1913-0.0486 0.03799-0.78285 0.6883-1.6317 1.4451-1.8596 1.6581-3.085 3.3348-3.8976 5.3335-0.63175 1.5538-0.65424 1.5876-0.8837 1.3298zm32.2-13.242c-1.4462-1.6957-2.0632-3.0515-2.1888-4.81-0.17169-2.403 0.3384-3.6894 0.68804-1.7351 0.19869 1.1105 1.0989 3.7518 1.9423 5.6988 0.40028 0.92407 0.67513 1.7393 0.61079 1.8116-0.0643 0.0723-0.53791-0.36208-1.0524-0.96528zm-6.2172-12.834c-1.2163-0.38539-0.75341-0.6812 1.06-0.67741 1.539 0.0032 2.571 0.25089 2.2729 0.54552-0.23641 0.23367-2.7036 0.33131-3.3329 0.1319zm-3.922-3.9607c-1.971-0.73804-0.96243-1.1328 2.809-1.0995 2.4742 0.02186 4.0828 0.34756 3.722 0.75356-0.0841 0.09459-0.97975 0.24385-1.9904 0.3317-1.0107 0.08785-2.2192 0.21184-2.6856 0.27552-0.48649 0.06642-1.2773-0.04495-1.855-0.26127z"/>
 </g>
</svg>
