<?xml version="1.0" encoding="UTF-8" standalone="no"?>
<!-- Created with Inkscape (http://www.inkscape.org/) -->
<svg id="svg2" xmlns:rdf="http://www.w3.org/1999/02/22-rdf-syntax-ns#" xmlns="http://www.w3.org/2000/svg" height="100" viewBox="0 0 165 100" width="165" version="1.1" xmlns:cc="http://creativecommons.org/ns#" xmlns:dc="http://purl.org/dc/elements/1.1/">
 <metadata id="metadata7">
  <rdf:RDF>
   <cc:Work rdf:about="">
    <dc:format>image/svg+xml</dc:format>
    <dc:type rdf:resource="http://purl.org/dc/dcmitype/StillImage"/>
    <dc:title/>
   </cc:Work>
  </rdf:RDF>
 </metadata>
 <rect id="rect4246" fill-rule="evenodd" ry=".16525" height="101.13" width="165.72" y="-.83613" x="-.69328" fill="#df0209"/>
 <g id="g4369" fill-rule="evenodd" transform="translate(.0000021352 -2.7396e-7)" stroke="#fff" stroke-width=".28328" fill="#fff">
  <path id="path4359" d="m16.731 64.424-0.77902-0.1336v-3.6471c0-2.0836 0.11937-3.7209 0.27844-3.8192 0.15314-0.09465 1.8422-0.24801 3.7535-0.3408s3.7558-0.27235 4.0989-0.39903c0.3431-0.12667 0.85222-0.65009 1.1314-1.1631 0.44969-0.82648 0.52391-2.0042 0.65095-10.329 0.07887-5.1678 0.25019-9.502 0.38071-9.6316 0.28182-0.27987 6.35-0.29015 7.0749-0.01198 0.47143 0.1809 0.49736 0.88916 0.41945 11.457l-0.08304 11.265-0.90823 1.7378c-0.99612 1.906-2.5932 3.4404-4.5944 4.4143-1.1629 0.56593-1.7766 0.6361-5.9703 0.6827-2.5708 0.02856-5.0247-0.0082-5.4532-0.08167z"/>
  <path id="path4361" d="m42.397 65.167c-2.629-0.52033-5.2945-2.3434-6.5508-4.4804-0.69894-1.1889-0.7724-1.5751-0.76238-4.0069 0.01914-4.6453 1.6742-7.478 5.1263-8.7738 0.91376-0.343 3.801-1.0468 6.416-1.5639 2.6151-0.51716 4.9415-1.0954 5.1699-1.2849 0.59171-0.49108 0.51285-1.1412-0.2548-2.1006-0.58908-0.73622-0.87925-0.84697-2.4773-0.94548-2.1521-0.13267-3.1999 0.42859-4.6438 2.4876l-0.89395 1.2748-1.9605 0.09078c-2.9012 0.13434-5.504-0.19257-5.7051-0.71654-0.28913-0.75346 0.77359-4.5231 1.6468-5.8413 1.0354-1.5632 3.2149-3.0736 5.6388-3.9077 2.7189-0.93562 8.4035-0.94457 11.097-0.01748 2.0901 0.71944 3.9837 2.1982 5.341 4.171l0.84235 1.2243v8.9229c0 9.8197 0.04338 9.5751-1.7676 9.9666-1.1883 0.25693-3.2729 1.311-5.2832 2.6715-2.5398 1.7189-4.4058 2.537-6.466 2.8348-2.204 0.31869-2.8796 0.31789-4.5127-0.0053v0.000003zm6.93-7.8065c1.7955-0.89471 2.8843-2.5246 2.8843-4.3176 0-1.3459-0.10522-1.3813-2.6064-0.8755-2.2712 0.45926-4.2456 1.1306-5.113 1.7386-1.359 0.95245-0.95441 3.0442 0.73051 3.7771 1.3413 0.58346 2.4633 0.49528 4.1046-0.32263z"/>
  <path id="path4363" d="m64.068 64.696c-1.067-0.092-1.348-0.231-1.483-0.736-0.092-0.343-0.169-5.615-0.171-11.716l-0.0039-11.093 1.0869-1.371c1.52-1.9173 3.0911-3.2716 4.7327-4.0794 1.279-0.62939 1.7449-0.6908 5.2284-0.68899 3.3579 0.0017 4.1572 0.09946 6.5542 0.80118l2.7299 0.7992 1.1566-0.59007c3.7324-1.9041 9.0192-1.914 12.923-0.02428 1.9578 0.94778 3.9963 2.9343 4.5901 4.4731 0.46849 1.2141 0.51577 2.3759 0.51203 12.579-0.002 6.1825-0.10472 11.342-0.22767 11.465-0.32508 0.32508-3.8827 0.47758-5.9575 0.25539l-1.786-0.193-0.273-10.252c-0.191-7.147-0.38-10.443-0.625-10.886-1.2136-2.1982-5.4011-1.8107-5.8063 0.53729-0.08989 0.52085-0.25131 5.3061-0.3587 10.634l-0.19526 9.6869-1.5557 0.19437c-1.7486 0.21847-6.4991 0.01354-6.8064-0.29363-0.11006-0.11002-0.24523-4.7874-0.30039-10.394l-0.1-10.193-1.146-0.831c-1.9312-1.399-4.3189-1.0115-5.0972 0.82717-0.20258 0.47858-0.37569 4.3116-0.47786 10.581-0.09735 5.9733-0.27136 9.934-0.44349 10.095-0.32758 0.30556-4.7615 0.57936-6.6987 0.41366z"/>
  <path id="path4365" d="m110.66 65.165c-3.0461-0.60212-5.8037-2.7093-6.9568-5.316-0.47984-1.0848-0.54642-1.678-0.41714-3.7173 0.19978-3.1517 0.84336-4.9241 2.3265-6.4072 1.4669-1.4669 3.4206-2.2378 7.9321-3.1299 6.1219-1.2106 6.3704-1.2767 6.6247-1.7625 0.33848-0.64654-0.0472-1.5487-0.97364-2.2774-1.5651-1.2311-5.0808-0.58185-6.0116 1.1101-1.0415 1.8933-1.3988 2.1746-3.0187 2.377-1.9743 0.24667-5.4677-0.0909-5.9519-0.57513-0.66164-0.66164 0.26668-4.244 1.6156-6.2345 1.8416-2.7176 5.3331-4.2907 10.123-4.5614 3.1271-0.17667 5.3845 0.17949 7.6178 1.2019 1.793 0.82086 2.4706 1.3817 4.0347 3.3397l1.0952 1.371v9.2855 9.2855l-1.7705 0.4891c-1.0744 0.29682-2.803 1.154-4.3968 2.1803-5.0129 3.2281-8.0792 4.091-11.873 3.3411zm7.0793-7.849c1.4557-0.85305 2.4585-2.36 2.6508-3.9835 0.2048-1.7292 0.21722-1.7251-3.0707-1.0334-5.5072 1.1585-7.0301 3.2497-3.8301 5.2592 1.0617 0.66671 2.8752 0.5633 4.25-0.24234z"/>
  <path id="path4367" d="m132.6 64.367c-0.73353-0.112-1.4346-0.30463-1.558-0.42807s-0.21353-4.8986-0.20028-10.611l0.0241-10.387 0.86017-1.871c1.7839-3.8804 4.4592-5.7039 9.1544-6.24 3.5711-0.40771 7.3658-0.15741 7.86 0.51845 0.26262 0.35915 0.34277 1.4928 0.28605 4.0458l-0.0788 3.5468-3.9659 0.22798c-4.4784 0.25744-5.0791 0.48835-5.4845 2.1083-0.14634 0.58468-0.34403 5.0099-0.43932 9.8339-0.0953 4.824-0.26819 8.8658-0.38422 8.9818-0.31606 0.31607-4.5483 0.50722-6.0736 0.27433z"/>
 </g>
</svg>
