<?xml version="1.0" encoding="UTF-8" standalone="no"?>
<!-- Created with Inkscape (http://www.inkscape.org/) -->
<svg id="svg2" xmlns:rdf="http://www.w3.org/1999/02/22-rdf-syntax-ns#" xmlns="http://www.w3.org/2000/svg" height="100" viewBox="0 0 165 100" width="165" version="1.1" xmlns:cc="http://creativecommons.org/ns#" xmlns:dc="http://purl.org/dc/elements/1.1/">
 <metadata id="metadata7">
  <rdf:RDF>
   <cc:Work rdf:about="">
    <dc:format>image/svg+xml</dc:format>
    <dc:type rdf:resource="http://purl.org/dc/dcmitype/StillImage"/>
    <dc:title/>
   </cc:Work>
  </rdf:RDF>
 </metadata>
 <g id="g4190" fill="#0088fe" transform="matrix(.77895 0 0 .87854 .70971 27.158)">
  <path id="path4192" d="m49.157 25.627c0 13.168-10.562 23.729-24.004 23.729-12.344-0.137-23.318-10.148-23.318-23.865 0-13.307 10.699-23.592 23.729-23.592 13.031 0 23.593 10.56 23.593 23.728zm-22.632-16.732c-6.995 0-13.579 2.605-17.831 6.857-5.898 5.623-6.172 13.305-0.686 18.93 9.601 9.875 24.964 10.01 34.703 0.271 5.486-5.484 5.624-12.756 0.274-18.379-4.664-5.074-10.562-7.406-16.46-7.679z"/>
  <path id="path4194" d="m58.347 37.698v-10.427c0-0.41-0.137-0.821 0.549-1.096 3.429-0.822 6.995-1.371 10.562-1.098 1.509 0.139 3.018 0.549 4.252 1.508 0.548 0.414 0.96 0.414 1.509 0 2.607-1.508 5.486-1.92 8.367-1.508 3.841 0.686 6.035 3.293 6.446 7.271 0.274 2.604 0.138 5.211 0.138 7.815v7.817c0 0.412 0.137 0.824-0.549 0.824h-5.35c-0.822 0-0.686-0.549-0.686-0.961v-11.385c0-1.234-0.137-2.469-0.411-3.566-0.55-1.92-1.921-2.742-3.842-2.469-0.274 0-0.548 0.137-0.685 0.137-1.51 0.412-1.51 0.412-1.234 1.92 0.137 0.961 0.137 1.922 0.137 2.882v12.209c0 0.821-0.137 0.959-0.961 0.959h-4.663c-0.823 0-0.96-0.273-0.96-0.959v-11.386c0-1.098 0-2.194-0.412-3.43-0.549-1.92-1.509-2.744-3.565-2.605-2.195 0-2.195 0-2.195 2.195v15.086c0 0.824-0.137 1.099-0.96 1.099-1.509-0.138-3.155 0-4.664 0-0.686 0-0.96-0.273-0.96-0.959 0.137-2.88 0.137-6.444 0.137-9.873z"/>
  <path id="path4196" d="m161.5 32.484v15.5c0 0.824-0.14 1.099-0.961 1.099h-10.287c-6.447 0-11.386-5.076-11.386-11.521 0-6.312 5.074-11.386 11.521-11.386h3.293c0.686 0 0.959-0.273 0.959-0.959v-7.545c0-0.822 0.139-1.098 0.961-1.098 1.646-0.137 3.291-0.275 4.938-0.549 0.821-0.137 1.098 0.137 1.098 0.961-0.136 5.212-0.136 10.425-0.136 15.498zm-6.996 5.35v-4.938c0-0.687-0.274-0.959-0.822-0.822h-2.606c-2.879 0-5.211 2.195-5.486 5.074-0.273 3.156 1.646 5.762 4.527 6.311 1.233 0.275 2.604 0 3.977 0.137 0.549 0 0.549-0.412 0.549-0.686-0.139-1.783-0.139-3.43-0.139-5.076z"/>
  <path id="path4198" d="m194.55 41.127v7.133c0 0.686-0.139 0.822-0.823 0.822h-11.658c-2.057 0-3.979-0.686-5.623-2.195-1.783-1.645-2.607-3.703-2.059-6.172 0.686-2.881 2.604-4.525 5.35-5.35 0.961-0.273 1.783-0.412 2.744-0.412h5.485c0.822 0 0.822-0.271 0.687-0.959-0.273-1.234-1.51-2.057-3.019-2.057h-6.584c-0.961 0-1.37-0.14-1.646-1.236-0.137-1.371-0.547-2.742-0.959-3.977-0.139-0.275-0.139-0.55 0.273-0.55 3.565 0.137 7.27-0.412 10.836 0.273 4.252 0.688 6.856 3.979 6.856 8.231 0.14 2.061 0.14 4.254 0.14 6.449zm-8.781 2.745h2.332c0.41 0 0.687-0.138 0.687-0.688v-3.018c0-0.273 0-0.547-0.41-0.547-1.646 0-3.293 0-5.075 0.135-1.234 0.139-2.058 1.1-1.921 2.059 0 1.099 0.822 1.922 2.058 2.06 0.824-0.001 1.508-0.001 2.329-0.001z"/>
  <path id="path4200" d="m113.62 37.561v10.562c0 0.412 0.138 0.961-0.549 0.961-3.841-0.138-7.818 0.272-11.659-0.138-4.801-0.686-7.27-3.43-7.681-8.229-0.412-4.664-0.138-9.465-0.138-14.129 0-0.684 0.274-0.684 0.823-0.684h4.938c0.823 0 0.961 0.273 0.961 0.958v10.015c0 1.233 0 2.47 0.273 3.565 0.412 1.783 1.372 2.47 3.155 2.605 3.292 0.275 3.292 0.275 3.292-3.018v-13.305c0-0.823 0.138-1.099 1.098-1.099h4.664c0.822 0 0.959 0.275 0.959 0.959-0.136 3.844-0.136 7.411-0.136 10.977z"/>
  <path id="path4202" d="m116.78 37.561v-10.561c0-0.551 0-0.963 0.822-0.963 3.705 0.139 7.408-0.135 11.111 0.139 4.527 0.41 7.406 3.154 7.955 7.682 0.549 4.938 0.137 9.738 0.275 14.677 0 0.411-0.14 0.687-0.687 0.687h-5.351c-0.686 0-0.686-0.41-0.686-0.822v-9.603c0-1.371-0.137-2.881-0.412-4.252-0.412-1.922-1.371-2.744-3.291-2.744h-2.195c-0.823-0.135-0.961 0.275-0.961 0.961v15.226c0 0.961-0.272 1.234-1.098 1.098-1.508-0.137-3.018 0-4.525 0-0.821 0-0.961-0.273-0.961-0.961 0.004-3.568 0.004-7.134 0.004-10.564z"/>
  <path id="path4204" d="m197.98 30.016v-13.305c0-0.822 0.14-0.959 0.961-0.822 1.509 0.273 3.019 0.549 4.664 0.686 0.959 0.137 0.959 0.412 0.959 1.234v22.77c0 0.412 0 0.959 0.138 1.371 0.274 2.057 0.823 2.606 2.743 3.018 0.55 0.14 0.822 0.275 0.687 0.824-0.272 1.371-0.549 2.742-0.687 4.112-0.137 0.412-0.272 0.688-0.686 0.55-1.92-0.138-3.84-0.272-5.486-1.233-2.469-1.234-3.153-3.564-3.153-6.035-0.276-4.254-0.14-8.779-0.14-13.17z"/>
  <path id="path4206" d="m171.64 37.561v10.287c0 1.098-0.273 1.234-1.232 1.234-1.646-0.137-3.156 0-4.803 0-0.547 0-0.687-0.137-0.687-0.686v-21.535c0-0.549 0.14-0.687 0.687-0.687h5.213c0.686 0 0.822 0.273 0.822 0.961v10.426z"/>
  <path id="path4208" d="m92.638 9.032c0 2.193 0.137 4.389 0 6.584-0.137 2.879-1.509 4.25-4.39 4.664-1.782 0.273-3.565 0.137-5.349-0.275-0.961-0.275-0.686-0.688-0.549-1.234 0.137-0.824 0.549-0.41 0.96-0.275 1.646 0.412 3.429 0.686 5.075 0.275 1.92-0.41 2.881-2.059 2.605-3.979-0.137-0.686-0.549-0.273-0.822-0.139-1.646 0.688-3.291 0.688-4.938 0.275-1.372-0.41-2.47-1.234-3.156-2.605-1.233-2.607-1.233-5.35 0.412-7.818 0.961-1.508 2.469-2.332 4.115-2.469 1.783-0.137 3.429 0 5.213 0.412 0.548 0.137 0.822 0.412 0.822 1.096 0.002 1.646 0.139 3.566 0.002 5.488zm-1.646-0.961v-2.744c0-1.783 0-1.783-1.783-1.92-3.154-0.41-5.074 0.686-5.76 3.154-0.549 2.195-0.412 4.254 1.371 5.898 1.646 1.373 3.566 1.098 5.35 0.273 0.548-0.137 0.822-0.549 0.822-1.232-0.137-1.097 0-2.332 0-3.429z"/>
  <path id="path4210" d="m74.807 9.168h-3.704c-0.822 0-0.96 0.275-0.822 1.096 0.411 2.607 1.92 3.979 4.526 4.117 0.96 0 1.92-0.139 2.88-0.412 0.275-0.137 0.687-0.412 0.823 0.137 0 0.412 0.548 0.961-0.137 1.371-3.978 2.195-9.19-0.273-9.876-4.801-0.274-2.056-0.137-3.976 0.823-5.761 1.234-2.33 3.567-3.428 6.311-3.016 2.195 0.41 3.702 2.193 4.114 4.801 0.274 2.469 0.274 2.469-2.331 2.469-0.825-0.001-1.647-0.001-2.607-0.001zm-0.686-1.509h3.155c0.274 0 0.687 0 0.687-0.412 0.136-1.92-1.51-3.84-3.566-3.979-2.059 0-3.979 1.922-4.115 3.979 0 0.549 0.273 0.412 0.686 0.412h3.153z"/>
  <path id="path4212" d="m129.4 8.756c0 2.881-0.959 5.213-3.703 6.584-3.291 1.51-6.993-0.137-8.229-3.566-0.688-1.92-0.688-3.84-0.139-5.762 0.824-2.744 3.156-4.389 6.035-4.389 2.744 0.139 5.076 1.92 5.762 4.801 0.14 0.823 0.274 1.51 0.274 2.332zm-1.917 0c0-0.549 0-1.098-0.138-1.646-0.411-2.195-1.92-3.703-3.842-3.842-2.058-0.137-3.703 1.1-4.39 3.293-0.409 1.646-0.409 3.293 0.138 4.801 0.688 1.783 2.194 2.881 3.979 2.881 1.783 0 3.153-1.098 3.84-2.881 0.413-0.822 0.413-1.647 0.413-2.606z"/>
  <path id="path4214" d="m172.33 19.866c0 2.471-1.646 4.252-4.115 4.252s-4.252-1.781-4.252-4.113c0-2.469 1.783-4.115 4.113-4.252 2.471-0.137 4.254 1.644 4.254 4.113z"/>
  <path id="path4216" d="m106.22 8.62v5.762c0 0.41 0 0.686-0.411 0.822-2.059 0.549-4.116 0.822-6.173 0.412-2.47-0.412-3.705-2.059-3.841-4.939-0.138-2.742 0-5.35-0.138-8.092 0-0.822 0.549-0.549 0.96-0.549s0.823 0 0.823 0.686v6.174c0 0.684 0 1.369 0.137 1.92 0.412 2.605 1.646 3.566 4.39 3.428 2.469-0.273 2.469-0.273 2.469-2.742v-8.504c0-0.688 0.138-0.961 0.823-0.961s0.961 0.273 0.961 0.961v5.622z"/>
  <path id="path4218" d="m134.34 15.889c-1.096 0-2.058-0.137-3.153-0.412-0.822-0.273-0.55-0.686-0.41-1.234 0.137-0.686 0.547-0.549 0.959-0.41 1.51 0.41 3.018 0.549 4.526 0.137 0.822-0.275 1.509-0.688 1.509-1.646 0.139-0.822-0.273-1.646-1.099-2.059-1.233-0.686-2.47-1.096-3.703-1.783-1.92-0.959-2.604-2.193-2.332-3.84 0.274-1.645 1.511-2.742 3.431-3.018 1.371-0.273 2.742 0 4.114 0.275 0.822 0.273 0.55 0.822 0.412 1.232-0.139 0.688-0.549 0.412-0.961 0.275-1.099-0.41-2.332-0.547-3.431-0.275-0.959 0.137-1.646 0.551-1.92 1.648-0.137 0.959 0.273 1.781 1.099 2.193 1.099 0.549 2.194 0.961 3.429 1.508 2.194 0.963 3.02 2.744 2.469 4.664-0.547 1.783-2.058 2.195-3.564 2.471-0.276 0.274-0.826 0.137-1.375 0.274z"/>
  <path id="path4220" d="m61.914 15.752c-1.098 0-2.195-0.137-3.155-0.412-0.686-0.273-0.686-0.549-0.549-1.234 0.137-0.686 0.549-0.549 0.96-0.412 1.372 0.549 2.88 0.688 4.252 0.275 0.96-0.275 1.646-0.688 1.783-1.646 0.137-1.098-0.412-1.783-1.234-2.195-1.098-0.549-2.333-1.096-3.429-1.646-1.921-0.959-2.606-2.057-2.333-3.84 0.275-1.645 1.509-2.742 3.429-3.018 1.372-0.273 2.744 0 3.978 0.275 0.686 0.137 0.686 0.549 0.549 1.232-0.138 0.688-0.549 0.551-1.098 0.412-1.097-0.412-2.195-0.412-3.292-0.275-0.96 0.139-1.646 0.551-1.92 1.646-0.136 0.961 0.275 1.786 1.098 2.196 1.234 0.549 2.469 1.098 3.704 1.646 1.372 0.688 2.194 1.646 2.332 3.156 0 1.781-0.823 3.016-2.606 3.564-0.686 0.276-1.646 0.413-2.469 0.276z"/>
  <path id="path4222" d="m109.37 8.895v-5.488c0-0.686 0.273-0.959 0.822-1.098 1.783-0.686 3.703-0.686 5.625-0.41 0.547 0.137 0.822 0.273 0.686 0.961-0.139 0.547-0.273 0.822-0.961 0.684-1.234-0.275-2.332-0.137-3.566 0-0.686 0.139-0.821 0.412-0.821 1.098v10.012c0 0.824-0.136 1.1-0.96 1.1-0.686 0-0.822-0.275-0.822-0.824-0.003-2.197-0.003-4.115-0.003-6.035z"/>
  <path id="path4224" d="m13.631 24.118c0.138-0.41 0.55-0.41 0.824-0.41 6.31-2.332 12.482-4.527 18.792-6.857 0.274-0.139 0.686-0.412 0.96-0.139 0.274 0.275 0 0.686-0.136 0.961-2.195 6.172-4.527 12.481-6.722 18.652-0.137 0.274-0.137 0.823-0.548 0.823s-0.411-0.409-0.549-0.686c-1.234-2.193-2.605-4.525-3.84-6.721-0.412-0.686-0.824-1.098-1.509-1.371-2.195-1.1-4.252-2.334-6.447-3.566-0.275-0.274-0.687-0.274-0.825-0.686z"/>
 </g>
</svg>
